PathFileType	4	(X/Y/Z)	T1_P1_NoVision_NoMovement_0_0-649.trc
DataRate	CameraRate	NumFrames	NumMarkers	Units	OrigDataRate	OrigDataStartFrame	OrigNumFrames
60	60	5	27	m	60	243	649
Frame#	Time	RHip			RKnee			RAnkle			RBigToe			RSmallToe			RHeel			LHip			LKnee			LAnkle			LBigToe			LSmallToe			LHeel			Neck			Head			Nose			RShoulder			RElbow			RWrist			RThumb			RIndex			RPinky			LShoulder			LElbow			LWrist			LThumb			LIndex			LPinky		
		X1	Y1	Z1	X2	Y2	Z2	X3	Y3	Z3	X4	Y4	Z4	X5	Y5	Z5	X6	Y6	Z6	X7	Y7	Z7	X8	Y8	Z8	X9	Y9	Z9	X10	Y10	Z10	X11	Y11	Z11	X12	Y12	Z12	X13	Y13	Z13	X14	Y14	Z14	X15	Y15	Z15	X16	Y16	Z16	X17	Y17	Z17	X18	Y18	Z18	X19	Y19	Z19	X20	Y20	Z20	X21	Y21	Z21	X22	Y22	Z22	X23	Y23	Z23	X24	Y24	Z24	X25	Y25	Z25	X26	Y26	Z26	X27	Y27	Z27
244	4.066666666666666	-76.13783290923217	3820.526096943964	-513.9101737297699	294.5334908618581	3977.0039466902163	-518.7746653960129	630.6482514627784	4123.1791097810665	-526.1847167756	727.14810763577	4041.290682072259	-510.3262496103563	733.3912815437071	4062.7961537041956	-600.1720952320431	661.5426988098885	4174.654096107702	-517.9141734880556	-104.61142749535753	3910.7332357223454	-341.3689247960434	258.57433565515356	4025.008841541384	-336.010899345168	598.8746607659718	4233.9866898440905	-357.8496029398109	678.3492790913598	4148.5122527767635	-251.17240085174637	653.399064008735	4225.418320325834	-225.05740723707095	630.6281014329884	4272.268891868014	-382.135830053037	-627.5486580397694	3676.097732966603	-450.602910789054	-870.9679919894671	3462.64362323187	-341.9784344192573	-696.6538942833961	3499.839264190062	-297.9801605369557	-556.8420135132918	3608.3057844223144	-562.7258932805345	-288.12907897930194	3730.5940536208864	-666.1426663454599	-33.470114327594246	3740.593886041527	-589.059722749858	73.81121848824993	3753.937501720535	-537.7606898604853	103.04752070520234	3779.168163837851	-559.2854133447904	93.37632604506943	3804.8169218108615	-589.3937812062603	-615.8803903733685	3823.680519043526	-342.72470772805696	-375.38563062083944	3967.2111396328323	-289.8987657090439	-131.85555603450015	3950.926832612334	-209.46915227070141	-16.160375557676794	3967.5464349763524	-214.91745574911434	11.450758751770962	3991.424329665075	-204.18834479443706	-10.462541588602125	4003.4924597545373	-196.19149451699457
245	4.083333333333333	-76.11226825923175	3820.675826664138	-514.089789249072	295.2404106604635	3977.1880006477772	-519.0892194440414	629.5611736207976	4122.3832494748285	-526.2502651088472	728.1003084501174	4044.3419131994006	-510.968020242274	733.6214785926348	4063.4529882571105	-600.6254835429824	661.8592748745664	4174.406157711718	-517.8460532484814	-104.69573136200577	3910.5841120120044	-341.3196687800449	258.98005226049895	4025.2388579848853	-335.9725073174961	600.5699214844607	4238.289190436617	-358.152562857697	676.5424740611995	4143.581514972674	-248.89009571301042	652.7752811333942	4227.0606913484235	-225.36545364902213	630.6430255741025	4271.476982774225	-382.1724911230823	-627.5673793987938	3676.0849722629846	-450.5983008129736	-871.6009199387385	3462.442587664733	-342.78116132264813	-696.5843324029286	3499.8739855825825	-298.00950008915555	-556.8550574180399	3608.3081871116083	-562.728369440023	-288.78550229628263	3732.1592223374155	-667.5571802793853	-33.337916365465205	3740.668145057115	-589.0641004642644	73.78689598544631	3753.5202701750754	-537.4094346469667	103.07683099519136	3778.789359329974	-558.9657859942042	93.40016605219272	3804.540894754953	-589.2284820513073	-615.886263105131	3823.6865580218564	-342.73793512556597	-375.3090786776545	3967.2616643921683	-289.88960491771286	-131.8604532814793	3951.2274224202724	-209.62411393549897	-17.449451279395806	3967.4404963792635	-215.07063049123104	11.389596419309239	3990.7829522436214	-203.96672962152192	-10.48375064655638	4003.005128292947	-196.07209067981196
246	4.1	-75.9092352483995	3824.7948505101313	-517.2831481016725	296.35889362645423	3977.6780725951076	-520.6510215358951	629.0845454840203	4122.951380224867	-526.5542587098587	728.192544253058	4041.759606039869	-510.26631363007766	733.3059217440033	4061.9012731375933	-599.5735446288573	662.6968979108653	4174.435944191111	-517.79622701315	-105.30019435540106	3910.1180160576732	-341.14832644319443	259.8532110579733	4025.6590311670343	-335.8630842340327	601.1640442047922	4240.680727621832	-357.2499381634366	676.612522045351	4140.4241604427725	-246.603144335709	653.0489764883174	4222.117310411076	-224.48569280888626	631.9826109671076	4272.508169620347	-382.4716163930206	-627.5593828262774	3676.0681926826073	-450.5962404029379	-871.9374705534146	3462.4195676813183	-343.77654034948216	-696.5928952267094	3499.887400063541	-298.0222898997184	-556.8610388679066	3608.310616262156	-562.7482555878041	-288.24598156114223	3736.784917911529	-671.3655890119473	-33.366249873109666	3740.7582010218025	-589.0929220103714	73.79952294931476	3753.770041118295	-537.5584308150882	102.96056400090087	3776.764977353846	-557.3133806084502	94.37459421446535	3806.251705952861	-591.8653602769961	-615.8929185989554	3823.6657569969448	-342.7565371067342	-376.00798023450545	3966.800655041421	-289.70947740058085	-131.70027465319495	3951.817062862038	-209.9556738671481	-17.93511213179425	3967.2376185441985	-215.10578218379322	11.006616967498545	3990.161883019199	-203.7005940852699	-10.528249220278946	4002.1899201359784	-195.9025064369228
247	4.116666666666666	-75.55508310558767	3829.526715918546	-520.9004350525362	298.06527734416323	3978.6067620866515	-522.2176519679732	629.4927473749536	4126.14112076779	-527.3246337121276	726.6340917600186	4033.352361585259	-508.30252726396526	733.1353337965814	4060.979327798548	-599.000112846309	663.2211393725299	4174.635427694072	-517.7799320744405	-106.52209853245417	3909.279102288863	-340.81770565989746	260.4816071176365	4025.974476802001	-335.7814487993977	600.6090637827258	4241.077547494519	-356.2423513473682	677.9156809176714	4140.714623471348	-246.164872173557	653.7090826819233	4212.363596931836	-222.79203025284386	633.3641398696973	4276.921417866397	-383.2008245570515	-627.5439839377856	3676.0472855416197	-450.59615795193514	-871.6545716763959	3462.831455134562	-344.91875193778594	-696.6928889147265	3499.859489448542	-298.0126062273803	-556.8512879906662	3608.2941140349585	-562.7774060573297	-287.3004407459798	3741.395371501582	-675.0983788884068	-33.4116000589335	3740.8385982428404	-589.1203484676307	73.80125728914862	3754.04627016312	-537.7279194689366	102.5267578188632	3771.9937045046745	-553.479976582486	95.9451834535001	3804.139551705688	-593.4337009322701	-615.8874016966973	3823.627255846974	-342.766950289667	-376.9017880678791	3966.2971253801907	-289.5379721678182	-131.19481256421122	3952.0632796355467	-210.05364404094206	-17.58810935587615	3967.2506873118514	-215.12666306130205	10.215257445615649	3989.4905273040886	-203.4355560491071	-10.55449775028036	4002.0946553188364	-195.86081272586603
248	4.133333333333334	-74.97613778202262	3832.1998196180475	-522.8637465481501	299.43067503086746	3979.3716768370505	-522.155273966334	630.3322479161188	4130.966291690751	-528.3878923170356	723.8734003523098	4022.448744597078	-505.890372290756	734.0439781655983	4064.4210567853543	-601.5014123535293	663.0293446668877	4174.850884506569	-517.7910362409555	-107.63503316810875	3908.5553122912606	-340.51998552640373	260.7517809455002	4026.1737138022854	-335.7602035324063	600.5277789706894	4243.985792223418	-356.38221259930515	678.9330993280638	4144.35113712899	-248.56072565788156	654.1331467671986	4204.221870951416	-221.4329621360922	634.2198279303682	4285.065045729603	-384.4449374951441	-627.5470071336707	3676.0286080596284	-450.59375961166273	-871.0917669524977	3463.5271042926897	-346.3008285954246	-696.7150382758043	3499.858569663843	-298.0153313228781	-556.8309578194603	3608.2593895736168	-562.7998297856216	-287.3285988441417	3743.755303965129	-677.0529250908844	-33.4383775662229	3740.8654711496556	-589.1107333379867	73.78644171005868	3754.1177561626146	-537.76874573872	101.95603659831511	3766.168792313683	-548.8442374752794	97.06150800465129	3796.3198194858805	-591.6586402609984	-615.8638957565589	3823.5881614073746	-342.75427943397483	-376.84795458090235	3966.612868611383	-289.69538548239416	-130.4773962699486	3950.2637526816516	-208.8693282232222	-16.835881658556154	3967.531217349805	-215.18537406868464	9.210727552719248	3988.949568842566	-203.37048425539672	-10.520263934303474	4004.927340366801	-196.28674136107523
